<svg id="Layer_1" data-name="Layer 1" xmlns="http://www.w3.org/2000/svg" viewBox="0 0 1397.2 453.4"><defs><style>.cls-1{fill:#1d59a1;}.cls-2{fill:#fff;}</style></defs><title>fullsvg</title><path class="cls-1" d="M2208.6,1356.7c0-25.1.1-50.1,0-75.2a79.2,79.2,0,0,0-15.3-47.7c-17.4-23.7-40.9-35.6-70.3-35.3-4.9.1-9.8.6-14.7.9l-29.4,1.7-13.2.9c-6.2.3-12.3.8-18.5,1.2l-16.6,1-29.4,1.9-29.4,1.8-12.8.8-29.8,2-29.4,1.7-13.2.9-18.5,1.2-16.5,1-29.8,2-29.4,1.7-13.2.9-18.5,1.2-16.6,1-29.8,2-29.4,1.7-13.2.9-18.4,1.2-16.6,1-29.8,2-29.4,1.7-13.2.9-18.5,1.2-16.6,1-29.7,2-29.5,1.7-12.8.9-18.1,1.2-16.9,1-29.1,1.9-29.7,1.8-13.2.8-29.8,2L1291,1251l-13.2.8c-6.2.5-12.3.9-18.5,1.2l-16.6,1-29.4,2-29.4,1.8-13.2.8-18.4,1.2a29.6,29.6,0,0,0-10.3,2.2,63.8,63.8,0,0,0-7.4,3.7,72.6,72.6,0,0,0-26,27.9,36.1,36.1,0,0,0-4.6,17v11.7a12.6,12.6,0,0,0,.4,2.8l1.6.8c21.4,10.5,34,27.7,38.1,51.1,1.9,10.9-1.3,20.5-9.4,28.2a44.7,44.7,0,0,1-10.4,7.4,64.8,64.8,0,0,1-14.1,5.3l-4.9,1.3c-.5,2.9.3,5.4.7,7.8a45.9,45.9,0,0,0,4.5,14,26.3,26.3,0,0,0,15.9,13.1,46.2,46.2,0,0,0,12.3,1.7l49.9,1.1,52.5,1,39.3.9,52.5,1.2,51.7,1,39.3.8,54,1.2,17.8.3,56.6,1.3,49.9,1,51.7,1.1,52.2,1,39.3.9,52.1,1.2,51.7,1,39,.8,52.1,1.2,51.7,1,39.3.8c17.8.4,35.5.9,53.3,1.2l60.8,1.4c7.3.1,14.6.1,21.9.3a26.1,26.1,0,0,0,13.4-3.3,44.8,44.8,0,0,0,8-5.7,51.8,51.8,0,0,0,8.4-9.7c7.5-10.8,11.8-22.5,11.6-36C2208.4,1400.8,2208.6,1378.7,2208.6,1356.7ZM1268.7,1405c-1.5,1.8-3,3.6-4.7,5.3a57.2,57.2,0,0,1-34.7,16.7l-10.1.9c-11.8-.3-23.1-2.5-33.4-8.3-16.4-9.3-27-23.3-32.2-41.2a85.8,85.8,0,0,1-2.8-30.7,77.8,77.8,0,0,1,7.2-27.6,72.6,72.6,0,0,1,20.7-25.6,58.9,58.9,0,0,1,30-12.2,79,79,0,0,1,36.1,3.8,57.3,57.3,0,0,1,21.2,13.3l1.4,1.4c3.1,3.3,3.3,4.2,1.3,8.3a207,207,0,0,1-12,21,9.1,9.1,0,0,1-1.1,1.6c-2.1,2.6-2.9,2.7-5.5.5s-3.6-3.2-5.5-4.7c-5-4-10.4-7-16.7-8.2a34.1,34.1,0,0,0-16.5.5,27.5,27.5,0,0,0-13.8,9.4,35.3,35.3,0,0,0-7.5,17.5,47.6,47.6,0,0,0,1.3,20.9,35.3,35.3,0,0,0,7,12.9,27.3,27.3,0,0,0,20.8,9.9,35.6,35.6,0,0,0,22.4-6.4c2.8-1.9,5.4-4.1,8.1-6.2s3.5-2.3,5.4.5c4.8,7,9.3,14.1,14,21.1A4.3,4.3,0,0,1,1268.7,1405Zm143.3-18.2c-8.9,18.9-22.9,32-43,38.2a78.4,78.4,0,0,1-25,2.7,64.2,64.2,0,0,1-27.3-6.6c-19.9-10.2-32.7-26.2-37.7-47.9-3.7-15.8-3-31.6,3-46.8,7.5-19.1,20.7-32.8,39.8-40.5,7.9-3.2,16.3-4.4,24.7-4.6,12.8-.1,24.9,2.3,35.9,8.8,18,10.7,29.4,26.4,34.2,46.8a77.5,77.5,0,0,1,1.8,18C1418.5,1366,1416.7,1376.8,1412,1386.8Zm132.9,16.3c-8.9,10.8-20.5,17.2-34.1,20a93,93,0,0,1-15.8,1.6c-18.8,0-37.5.3-56.3-.5h-1.9c-2.8-.2-3.4-.8-3.5-3.7s.1-3.8.1-5.7c.6-18.2,1.1-36.5,1.7-54.7v-5.3h.1c-.4-11.7-.8-23.4-1.1-35.1-.3-9.7-.6-19.4-.8-29.1-.1-4.1.7-4.8,4.8-5.1,10.8-.9,21.7-.7,32.5-.6,8.5.1,17.1.2,25.7.7a90.9,90.9,0,0,1,27.2,5.6,53.4,53.4,0,0,1,25.3,19.6,73.5,73.5,0,0,1,13,33.9C1564.4,1366.4,1559,1386,1544.9,1403.1Zm134.4-9.3c-.2,3.8-.7,7.6-1.2,11.3s-1.5,9.5-2.3,14.2a16.5,16.5,0,0,1-1.1,3.6,3.8,3.8,0,0,1-4.1,2.7l-5.2-.4c-3.3-.2-6.6-.5-9.8-.5l-54.4-.4-19.3-.2c-4.1,0-4.7-.6-4.6-4.5s.1-10.4.3-15.5.8-13.1,1.1-19.6l1.2-30.7-1.5-41.8c-.3-7.7-.6-15.4-1-23.1-.1-2.6-.2-4,3.8-4h4.6c12,.2,24.1.7,36.2.7s24.5-.4,36.7-.6l7.1-.2a18.7,18.7,0,0,1,3.4.3,4.7,4.7,0,0,1,4.5,4.3c.4,3.4.9,6.8,1.2,10.2s.8,9.5,1.1,14.3c.1.6.1,1.2.2,1.9,0,2.4-.6,3-3.2,3s-3.5-.2-5.3-.3c-13.9-1.2-27.9-1.8-41.8-1.9a32.7,32.7,0,0,0-4.5.4,3.8,3.8,0,0,0-3.3,3.6,41.7,41.7,0,0,0,.3,11.7c.5,2.6,2,4.3,4.7,4.6a34.2,34.2,0,0,0,4.5.4l21.2-.6c6.4-.3,12.8-.8,19.2-1.2a23.5,23.5,0,0,1,2.6-.1c1.9.1,2.7,1,2.5,3-.4,4-.9,8-1.2,12-.5,5.5-.8,11-1.2,16.6-.2,3.5-.8,4.1-4.3,3.8l-5.6-.7c-12.7-1.3-25.5-.6-38.2-.7h-1.5c-2.2.3-3.2,1.2-3.2,3.4,0,4,.2,8,.5,12.1a4.9,4.9,0,0,0,3.7,4.7,28.2,28.2,0,0,0,7,1.5,240.4,240.4,0,0,0,29.4-.4c5.5-.5,11.1-.9,16.6-1.1C1678.5,1389.5,1679.5,1390.4,1679.3,1393.8Zm90.7,29.9a57,57,0,0,1-23.5-2.5,67.6,67.6,0,0,1-33.7-22.5,87,87,0,0,1-18.8-41.1,70.6,70.6,0,0,1,6.9-44c6-11.9,15.3-20.6,27-26.7a78.9,78.9,0,0,1,26.4-8.7,58.6,58.6,0,0,1,29.3,3.3l2.1,1a4.1,4.1,0,0,1,2.3,3.6,24.1,24.1,0,0,1,.1,3.8c0,1.6-.1,3.3-.2,4.9h.2l-1.8,18a5.8,5.8,0,0,1-.3,1.9c-.6,2.6-1.4,3.2-4,2.6s-3.2-.8-4.7-1.2a50,50,0,0,0-14.9-1.9,34.3,34.3,0,0,0-19.9,7.4,27.1,27.1,0,0,0-9.9,16.4,35.8,35.8,0,0,0,.5,16.9,49,49,0,0,0,8.5,17.1,34.8,34.8,0,0,0,14.1,11.1,27.2,27.2,0,0,0,20.6.9,34.7,34.7,0,0,0,18-13.7c1.9-2.8,3.4-5.9,5.1-8.9.6-1.2,1.1-2.5,1.7-3.7s1.8-2.4,4.2-1.4l1.4.7c6.6,3.9,13.2,7.8,19.7,11.8,3.8,2.4,4,3.1,2.9,7.5a56.6,56.6,0,0,1-18.8,30.3A74.2,74.2,0,0,1,1770,1423.7Zm174.9-3.1c-.1,2.6-.4,3.1-3,3.4a50.5,50.5,0,0,1-5.6.6h-26.4a20.1,20.1,0,0,1-4.9-.8,2.2,2.2,0,0,1-1.9-2.4,7.6,7.6,0,0,1-.1-1.5c.2-6.1.3-12.1.6-18.2.2-8.6.7-17.3.9-26,.1-5-.8-6.1-5.9-6.1-11.7-.2-23.4-.1-35.1-.2l-6.4.2c-4,.3-4.8,1.2-4.9,5.2-.1,1.2,0,2.5,0,3.7l.9,32.1c0,2.8.1,5.6.1,8.3a16.9,16.9,0,0,1-.1,2.3,3.1,3.1,0,0,1-2.6,2.9,18.6,18.6,0,0,1-3.3.4h-29.1a18.4,18.4,0,0,1-4.1-.6,2.9,2.9,0,0,1-2.2-2.4c-.2-2.4-.3-4.6,1.8-6.5a68.8,68.8,0,0,0,9.3-10.9,90.2,90.2,0,0,0,14.1-30.7,21.1,21.1,0,0,0,.6-8.3,8.3,8.3,0,0,0-3.1-5.4,24.5,24.5,0,0,0-3.7-2.6l-16.9-10.3a12.3,12.3,0,0,1-.2-2c-.6-18.2-1.3-36.3-1.9-54.4,0-1-.1-2,0-3a2.3,2.3,0,0,1,2.5-2.4h3.4a234.1,234.1,0,0,0,30.2,0c1.7-.1,3.5-.5,5.2.8a6.6,6.6,0,0,1,.3,2.1q0,5.3-.3,10.5c-.5,9.1-1.2,18.1-1.7,27.2-.1,2-.2,4-.1,6s.9,3.6,3.6,3.9,4.2.4,6.4.4h33.2c2.5,0,5-.3,7.5-.5s2.9-1.2,3.2-3.2.1-2,.1-3c-.3-8.2-.7-16.4-.9-24.5-.2-5.1-.4-10.1-.5-15.1v-1.2c.1-2.5.9-3.3,3.4-3.5h2.7a222.7,222.7,0,0,0,28.3,0h3.4c2.2.2,2.9.9,3,3a18.5,18.5,0,0,1,.1,2.3c-.4,11.1-.8,22.2-1.1,33.2-.4,15.4-1.3,30.7-.6,46.1s1.2,30.7,1.8,46.1Zm118.5-15.4c-.6,4.5-1.4,9-2.2,13.5a27.9,27.9,0,0,1-1,3.9,4.2,4.2,0,0,1-4.4,3l-5.2-.4c-3.2-.2-6.3-.5-9.5-.5-15.3-.2-30.7-.2-46.1-.3l-27.5-.3h-2.3c-1.7-.2-2.4-.9-2.6-2.7a15,15,0,0,1,0-3c.1-12.2.8-24.4,1.5-36.6.5-9.3.7-18.6,1.1-27.9-.5-12.5-.9-25-1.3-37.4-.3-9.1-.8-18.1-1.1-27.2a12.1,12.1,0,0,1-.1-1.9c.1-1.4.6-2.1,2.1-2.2a33.9,33.9,0,0,1,4.5-.2c12.1.3,24.2.7,36.3.7s25.7-.3,38.5-.5l7.2-.2a18.4,18.4,0,0,1,3.3.3c2.8.5,4,1.7,4.4,4.4s1,8,1.4,12,.7,8.1.9,12.1a23.5,23.5,0,0,1,.1,2.6c-.1,1.9-.6,2.6-2.5,2.6a51.2,51.2,0,0,1-5.6-.3c-5.1-.3-10.1-.9-15.1-1.1-9-.4-18.1-.6-27.2-.8a26.3,26.3,0,0,0-4.8.6,3.3,3.3,0,0,0-2.8,3.2,36.3,36.3,0,0,0,.4,12.3c.6,2.4,2,3.9,4.4,4.2a38.8,38.8,0,0,0,4.8.4l19.7-.5a205.4,205.4,0,0,0,20.7-1.3h.8c3.7-.2,4.4.5,4.1,4.2-.6,6.2-1.3,12.3-1.8,18.5-.3,3.1-.3,6.2-.5,9.4s-.8,3.5-3.7,3.3-5.7-.6-8.6-.9-5.8-.4-8.7-.4l-25.7-.2a22.2,22.2,0,0,0-3.7.3,2.6,2.6,0,0,0-2.4,2.6c0,4.2-.3,8.5.4,12.8a5.3,5.3,0,0,0,3.9,4.6,28.2,28.2,0,0,0,7,1.5c9.8.2,19.6.5,29.4-.4,5.5-.6,11.1-.8,16.6-1.1,2.6-.2,4.1-.1,4,3.9A111.1,111.1,0,0,1,2063.4,1405.2Zm116.5-87.5a4.2,4.2,0,0,1-3.6.9l-16.2-.9c-8.7-.6-17.3-1.3-26-1.7-3.5-.2-7,.3-10.5.4a4.6,4.6,0,0,0-4.5,3.5,20.9,20.9,0,0,0,.2,13.3,5.2,5.2,0,0,0,4.9,3.7c2.7.1,5.5.2,8.3.1,10.8-.3,21.6-.8,32.4-1.2h2.7c3,0,3.7.1,4.6,3.7a30.8,30.8,0,0,1,.8,6.8c.1,6,.1,12.1,0,18.1a34.3,34.3,0,0,1-.7,5.6c-.4,2-1.4,2.7-3.5,2.7l-3-.2a374.2,374.2,0,0,0-39.6-1.3,17.3,17.3,0,0,0-4.5.5c-2.6.7-3.5,1.8-3.6,4.6s.1,6.3.2,9.4c.4,8.7.8,17.4,1.3,26,.1,3.2.4,6.3.6,9.5s-.2,3.2-2.9,4a10.2,10.2,0,0,1-3,.3h-23.1c-2.6-.1-5.2-.4-7.9-.7l-2.5-.6a3.2,3.2,0,0,1-2.4-3.4v-2.7c.4-16.9.7-33.7,1.3-50.6.4-13.8-.1-27.7-.9-41.5l-.9-14.3c-.4-7.2-.7-14.4-1.1-21.5a12,12,0,0,1,0-1.9c.1-1.7.8-2.5,2.5-2.6h3.1l37.7.6c8.4.1,16.6-.5,24.9-1s16.6-.9,24.9-1.3a16.2,16.2,0,0,1,3.8.2,4.2,4.2,0,0,1,3.6,3.4c.1.6.1,1.2.2,1.9v1.9a95.4,95.4,0,0,0,2.1,20.6A23.9,23.9,0,0,1,2179.9,1317.7Z" transform="translate(-811.5 -1030.1)"/><path class="cls-1" d="M1148.9,1125.4a64.4,64.4,0,0,0-7.7-23.5,87.4,87.4,0,0,0-14.7-19.6,192.6,192.6,0,0,0-30.2-24.5,117.2,117.2,0,0,0-15.2-8.3c-12.3-5.6-25.1-9.7-38-13.3-9.8-2.8-19.9-3.7-29.9-4.5-6.2-.5-12.5-.8-18.8-1.1a356.8,356.8,0,0,0-51.7,1c-4.1.4-8,1.1-11.5,3.4a38.9,38.9,0,0,1-5.4,2.7c-6.9,3-13.8,6.1-20.8,9-4.9,2-9.9,3.7-14.9,5.4l-24.3,8.3a45.8,45.8,0,0,0-18.1,11.3,66.8,66.8,0,0,0-10.8,14.5c-3.9,6.9-6.3,14.4-8.4,22.1a65.5,65.5,0,0,0-1.9,12.3c-.4,6.3.4,12.3,4.3,17.6a27.3,27.3,0,0,1,2.9,5.3c2.1,5,4.3,10,6.1,15,6.8,18.2,12.5,36.7,18.1,55.3.4,1.3.9,2.6,1.4,3.9,1.3,3.2,2.9,6.4,4.1,9.7,3.9,11,7.2,22.3,10,33.7a47.8,47.8,0,0,0,6.2,14.5,74.6,74.6,0,0,0,13.3,15.3,5.9,5.9,0,0,1,2.3,4.9c-.2,4.5-.1,9-.1,13.6.1,1.1-.2,2.3,1,3.3l2.9-1.3c5.8-2.5,11.5-5.2,17.4-7.5a161.7,161.7,0,0,1,39.4-10,143.1,143.1,0,0,1,24.5-.9,93.2,93.2,0,0,1,10.5,1,193.5,193.5,0,0,1,28.9,7.1c15.6,5.1,30.1,12.1,42.7,22.7a3.5,3.5,0,0,0,1.2.3c-.1-2-.2-3.9-.2-5.7s-.2-3.8-.2-5.7-.2-3.7.3-5.6a6.8,6.8,0,0,1,1.3.4c2.3,1.2,4.2.5,5.8-1.1a22.5,22.5,0,0,0,3-3.9c1.2-2.5,2.4-5,3.4-7.6a117.1,117.1,0,0,0,7.4-41,10.6,10.6,0,0,1,1.3-5.5c2.1-3.8,4-7.8,6.1-11.6,9.8-17.7,21-34.4,32.8-50.8l3-4.4a239.5,239.5,0,0,0,12.7-22.7,115,115,0,0,0,7.1-17.9A38.8,38.8,0,0,0,1148.9,1125.4ZM904.5,1272.8c-1.3-.5-1.9-1.6-2.7-2.6a138.5,138.5,0,0,1-11.5-16.8,241.3,241.3,0,0,1-19.4-43.8,473,473,0,0,1-15.3-58.7c-1.5-7.6-2.9-15.1-4.5-22.6a59.4,59.4,0,0,0-3-9,27.2,27.2,0,0,0-6.9-9.3,19.1,19.1,0,0,1-5.3-8.1,14.6,14.6,0,0,1,1.3-12.4c3-5.1,7.6-8.3,13.1-10.2a10.9,10.9,0,0,1,2.6-.5,6.9,6.9,0,0,1,7.1,3.9,23,23,0,0,1,1.8,5.8,21.7,21.7,0,0,1,.3,4.5c.5,11.5.7,23.1,1.3,34.7a305.8,305.8,0,0,0,2.9,33.1c.6,3.5,1.4,6.9,2.3,10.3l13.2,52a99.8,99.8,0,0,0,6,16.6,288.1,288.1,0,0,0,15.9,28.8c.5,1,1.2,1.9,1.6,2.9S905.2,1272.6,904.5,1272.8Zm41.6-23.8c-.3-.1-.8-.1-1-.3a9.4,9.4,0,0,1-.9-1.2c-8.2-12.7-16.2-25.6-22.5-39.4a130.8,130.8,0,0,1-5.4-14c-1.9-5.6-2.1-11.4-2.4-17.2-.4-7.9-.6-15.8-.8-23.8-.2-10.4-.7-20.9-1.7-31.3a105.5,105.5,0,0,0-3.7-20.8,55.8,55.8,0,0,0-2.8-7.4,18.5,18.5,0,0,0-6.1-7.5c-2.2-1.8-4.3-3.8-6.4-5.9a19,19,0,0,1-3.9-6.4,9.7,9.7,0,0,1-.2-5.6,3.6,3.6,0,0,1,1.9-2.6c5.8-2.7,11.7-4.1,18-2.6a18.1,18.1,0,0,1,12.6,9.9,32.2,32.2,0,0,1,3,8.9,94.4,94.4,0,0,1,1.8,23.7c-.1,5.3-.6,10.6-.9,15.8-.1,1.4-.1,2.8-.2,4.2-.1,12.7.3,25.4,1,38.1a378,378,0,0,0,3.7,38.4c.8,5.2,1.9,10.4,3.1,15.5a51.9,51.9,0,0,0,5.3,13.7l8.1,15.4C946,1247.3,946.8,1248,946.1,1249Zm53.5-188.7a242.6,242.6,0,0,0-4.1,31.8c-2.4,33.2-2.9,66.4-3.1,99.6,0,14.6,0,29.2-.1,43.8,0,1.2-.1,2.4-.1,3.6l-.8.2c-.4-1.1-.8-2.1-1.1-3.2-7.5-26.8-14.3-53.7-19.6-81a339.5,339.5,0,0,1-5.3-36.2,102.3,102.3,0,0,1,.3-20.7c.7-6.8,1.2-13.6,1.8-20.3a144.6,144.6,0,0,1,2.2-18.7,49.4,49.4,0,0,1,1.5-5.5c2.2-7.1,7.1-11.7,13.8-14.6a16.7,16.7,0,0,1,4-1c3.8-.6,6.6,1,8.5,4.2a17.1,17.1,0,0,1,2.5,7.9A31.3,31.3,0,0,1,999.6,1060.3Zm46.4,77.8c-10.4,13.9-16.6,29.5-19.5,46.6a180.2,180.2,0,0,0-2.1,25.5,7.7,7.7,0,0,1-.7,4.2c-.3-4.2-.7-7.6-.9-11.1-.6-10.2-1.1-20.4-.9-30.6a161.4,161.4,0,0,1,1.4-19.6,35.9,35.9,0,0,1,5.9-15.3c3.8-5.6,7.3-11.5,10.9-17.2,4.9-7.6,9.9-15.2,15.5-22.3s13.3-15.8,21.6-22.1c1.1-.8,2-1.9,3.7-2a11.1,11.1,0,0,1-.2,1.9,133.7,133.7,0,0,1-11.5,31.9,80.1,80.1,0,0,1-11.5,16.3Q1051.5,1130.9,1046,1138.1Zm16.6,130.9-.4-.5c.1-.2.3-.2.5-.4h0v.3c0,.1.1.2.1.3Zm59.6-160.8c-1,3.5-1.9,7.1-3,10.5-4.5,13.1-9.9,25.9-15.1,38.7s-11.2,27.7-16.7,41.7c-1.4,3.6-2.7,7.3-3.8,11a42.7,42.7,0,0,0-2,8.4,82.6,82.6,0,0,1-3.9,16.5,318.4,318.4,0,0,1-13.4,31.2v.3l-.2.3a.4.4,0,0,1-.1.3c0,.1-.1.2-.1.3l-.2.2-.5.3h-.3c0-.4.1-.7.1-1.1s.1-.5.2-.8a3.1,3.1,0,0,1,.2-.8,9.4,9.4,0,0,1,.4-1.6c2.1-7,4-14,5.4-21.2a49.5,49.5,0,0,0,1.2-8.6,179.8,179.8,0,0,1,3.1-25.4,360.8,360.8,0,0,1,10.4-42.5,117.1,117.1,0,0,1,9.3-21.9c2.9-5.2,5.4-10.8,8-16.2,1.5-3,3-6.1,4.6-9.1a59.5,59.5,0,0,1,7-10.2,36.8,36.8,0,0,0,4.5-6.1c.7-1.3,1.6-2.6,3.5-2.8a8.7,8.7,0,0,1,1.1,1.8A11,11,0,0,1,1122.2,1108.2Z" transform="translate(-811.5 -1030.1)"/><path class="cls-1" d="M887.6,1438.9l1.3,1.1,7.6,6.9a12.3,12.3,0,0,0,6.4,3c5.7.9,11.4,1.6,17.2.6a22,22,0,0,0,9.7-4,28.9,28.9,0,0,1,8.6-4.7c6.5-2.3,13.1-4.4,20.2-4.5a23.9,23.9,0,0,1,7,.8,10.3,10.3,0,0,1,7,6.9c2.9,8.8,1.4,16.8-5.5,23.2a54.3,54.3,0,0,1-27.8,14.3,57.4,57.4,0,0,1-27.9-1.7l-6.9-2.1a20.8,20.8,0,0,1-12.4-9.9,36,36,0,0,1-4.4-12.4,66.7,66.7,0,0,1-.8-16.1,2,2,0,0,1,.3-1.1C887.2,1439.1,887.4,1439,887.6,1438.9Z" transform="translate(-811.5 -1030.1)"/><path class="cls-1" d="M1073.6,1438.9l.3.4a55.3,55.3,0,0,1-2.5,24.2,26.5,26.5,0,0,1-2.5,5.4,20.6,20.6,0,0,1-13.2,10c-3.9,1-7.7,2.4-11.6,3.3-15.6,3.2-30,.5-43.2-8.5a53,53,0,0,1-6-4.6c-7-6.1-9.3-13.8-6.8-22.8,1.4-5.4,4.8-8.2,10.4-8.8a34.1,34.1,0,0,1,13.1,1,102.2,102.2,0,0,1,11.9,3.7,25.5,25.5,0,0,1,6.9,3.7c4.4,3.5,9.4,4.7,14.8,5a55.3,55.3,0,0,0,14.6-1.4,10.4,10.4,0,0,0,4.3-2.2Z" transform="translate(-811.5 -1030.1)"/><path class="cls-1" d="M1070.6,1401.6l3.9-1.4c9.6-3.4,19.1-6.9,28.4-11.2a113.7,113.7,0,0,0,10.3-5.5,16.1,16.1,0,0,0,3.6-3.3,1.3,1.3,0,0,0-.2-2l-2.7-2c-4.2-2.3-8.4-4.7-12.6-6.8-6.3-3.2-12.7-6.2-19.1-9.1-3.8-1.7-5.3-4.9-6.4-8.4s.6-4.7,3.2-5.7a19.8,19.8,0,0,1,3.3-.8,8.7,8.7,0,0,1,5.8,1.2c4.7,2.9,9.5,5.7,14.3,8.5l8.3,4.4,16.4,7.7a24.2,24.2,0,0,1,7.5,5.6,18.8,18.8,0,0,1,1.8,2.4,8.6,8.6,0,0,1-2.9,11.9,12.4,12.4,0,0,1-2,1l-45.1,23a27.3,27.3,0,0,1-7.8,2.5h-1.2c-4.5.3-7.2-2-7.4-6.6A39.9,39.9,0,0,1,1070.6,1401.6Z" transform="translate(-811.5 -1030.1)"/><path class="cls-1" d="M871.1,1416.2a22.1,22.1,0,0,1-8.7-2.6l-28.2-14.4-15.8-8.1-2.7-1.4c-4.3-2.7-5.4-7.4-2.6-11.7a20.7,20.7,0,0,1,8.8-7.5c4.3-2.1,8.6-4.2,12.9-6.1a123.5,123.5,0,0,0,15.7-8.3l10.4-6.2c3.3-2,6.5-1.4,9.7,0a3.8,3.8,0,0,1,2.2,4.8c-1.1,3.5-2.8,6.5-6.5,8.3-8.6,4-17.2,8.3-25.7,12.5a76.8,76.8,0,0,0-7.8,4.7c-1.8,1.2-1.9,2.5-.3,4a15.7,15.7,0,0,0,4.1,3.2c3.6,2,7.1,3.9,10.8,5.5,8.8,4,17.9,7.4,27,10.6,3.8,1.3,4,1.6,4.1,5.6a7.6,7.6,0,0,1-.1,1.5c-.3,3.6-2.3,5.4-5.9,5.6Z" transform="translate(-811.5 -1030.1)"/><path class="cls-1" d="M958,1379.2c-1.6-8.7-6.6-14.6-15-17.4s-15.9-1-22.4,4.8a20.5,20.5,0,0,0-7.1,17.2c.8,11.9,10.5,20.6,22.4,20.6C950.5,1404.4,960.2,1391.4,958,1379.2Zm-16.4,7.5a9,9,0,0,1-11.4.1,5.8,5.8,0,0,1-2-4.5,5.5,5.5,0,0,1,1.8-3.8,8.8,8.8,0,0,1,11.7-.1A5.5,5.5,0,0,1,941.6,1386.7Z" transform="translate(-811.5 -1030.1)"/><path class="cls-1" d="M1041.9,1372.6c-4.1-8-11.1-12-20-12s-15.6,4.2-19.9,12.1a19.6,19.6,0,0,0-2.3,11.7c1.2,12.1,11.2,19.9,22.5,20l2.7-.2C1039.3,1402.6,1049.3,1386.8,1041.9,1372.6Zm-14.4,14.3a9,9,0,0,1-5.6,1.9,8.7,8.7,0,0,1-5.6-2,5.5,5.5,0,0,1-.2-8.3,8.8,8.8,0,0,1,11.7-.1A5.5,5.5,0,0,1,1027.5,1386.9Z" transform="translate(-811.5 -1030.1)"/><path class="cls-1" d="M957.9,1348.3c-.4-1-.7-2.1-1.1-3.1-2-5.1-5.7-7.2-11-6.3a17.2,17.2,0,0,0-10.3,5.1c-6.8,7-14.9,7.1-22.6,1a9.4,9.4,0,0,1-2.7-2.9c.5-.7.9-.4,1.3-.1a37.5,37.5,0,0,0,4.4,3.5c6,3.9,11.8,3.5,17.3-1.1l2-1.8c3.8-4.1,8.7-5.3,14-5.1a9,9,0,0,1,7.2,4.3A7.4,7.4,0,0,1,957.9,1348.3Z" transform="translate(-811.5 -1030.1)"/><path class="cls-1" d="M999.4,1415.1a1.9,1.9,0,0,1,.1,1,37.2,37.2,0,0,1-6.5,11l-.5.5c-4.8,4.8-10.2,5.3-15.7,1.5a27.3,27.3,0,0,1-6.4-6.3c-1.4-1.9-2.7-3.9-4-6a2.3,2.3,0,0,1,.1-1.8l1.7,2.4c1.8,2.4,3.5,4.9,5.5,7.1a21.3,21.3,0,0,0,5.2,4.3c4,2.4,7.8,2,11.5-1a20.3,20.3,0,0,0,4.7-5.8c1.1-1.8,2-3.8,3-5.7C998.4,1415.9,998.5,1415.1,999.4,1415.1Z" transform="translate(-811.5 -1030.1)"/><path class="cls-2" d="M1062.6,1268h0Z" transform="translate(-811.5 -1030.1)"/><path class="cls-2" d="M1062.7,1268a4.3,4.3,0,0,0,.2-1.1c0,.4-.1.7-.1,1.1Z" transform="translate(-811.5 -1030.1)"/><path class="cls-1" d="M1062.7,1268c0,.2.1.4.1.7l-.2.3-.4-.5c.1-.2.4-.3.5-.4Z" transform="translate(-811.5 -1030.1)"/><path class="cls-1" d="M1368.3,1382.5c-7.4,6.7-16.1,9.1-25.9,7.6-12.3-1.8-20.8-9-25-20.5-5.7-15.6-3-29.9,8.9-42.1,4.8-5,11.9-9.2,20.2-9,14.7.2,24,6.6,29.9,18A38.2,38.2,0,0,1,1368.3,1382.5Z" transform="translate(-811.5 -1030.1)"/><path class="cls-1" d="M1521.4,1371.4c-4,10.7-11.4,18-22.6,20.9a51.7,51.7,0,0,1-21.8.3,8.6,8.6,0,0,1-2.1-.7,3.3,3.3,0,0,1-2.4-3.4c.1-4.2,0-8.3-.1-12.5,0-7.2-.2-14.3-.2-19.6.1-13,.2-24.1.3-35.2.1-2.8.8-3.7,3.5-4.5l1.9-.4c6.9-.9,13.8-1.2,20.6.7,12.7,3.6,20.7,12.2,24.2,24.7A47.2,47.2,0,0,1,1521.4,1371.4Z" transform="translate(-811.5 -1030.1)"/></svg>