<svg id="Layer_1" data-name="Layer 1" xmlns="http://www.w3.org/2000/svg" viewBox="0 0 337.6 453.4"><defs><style>.cls-1{fill:#1d59a1;}.cls-2{fill:#fff;}</style></defs><title>halfsvg</title><path class="cls-1" d="M1148.9,1125.4a64.4,64.4,0,0,0-7.7-23.5,87.4,87.4,0,0,0-14.7-19.6,192.6,192.6,0,0,0-30.2-24.5,117.2,117.2,0,0,0-15.2-8.3c-12.3-5.6-25.1-9.7-38-13.3-9.8-2.8-19.9-3.7-29.9-4.5-6.2-.5-12.5-.8-18.8-1.1a356.8,356.8,0,0,0-51.7,1c-4.1.4-8,1.1-11.5,3.4a38.9,38.9,0,0,1-5.4,2.7c-6.9,3-13.8,6.1-20.8,9-4.9,2-9.9,3.7-14.9,5.4l-24.3,8.3a45.8,45.8,0,0,0-18.1,11.3,66.8,66.8,0,0,0-10.8,14.5c-3.9,6.9-6.3,14.4-8.4,22.1a65.5,65.5,0,0,0-1.9,12.3c-.4,6.3.4,12.3,4.3,17.6a27.3,27.3,0,0,1,2.9,5.3c2.1,5,4.3,10,6.1,15,6.8,18.2,12.5,36.7,18.1,55.3.4,1.3.9,2.6,1.4,3.9,1.3,3.2,2.9,6.4,4.1,9.7,3.9,11,7.2,22.3,10,33.7a47.8,47.8,0,0,0,6.2,14.5,74.6,74.6,0,0,0,13.3,15.3,5.9,5.9,0,0,1,2.3,4.9c-.2,4.5-.1,9-.1,13.6.1,1.1-.2,2.3,1,3.3l2.9-1.3c5.8-2.5,11.5-5.2,17.4-7.5a161.7,161.7,0,0,1,39.4-10,143.1,143.1,0,0,1,24.5-.9,93.2,93.2,0,0,1,10.5,1,193.5,193.5,0,0,1,28.9,7.1c15.6,5.1,30.1,12.1,42.7,22.7a3.5,3.5,0,0,0,1.2.3c-.1-2-.2-3.9-.2-5.7s-.2-3.8-.2-5.7-.2-3.7.3-5.6a6.8,6.8,0,0,1,1.3.4c2.3,1.2,4.2.5,5.8-1.1a22.5,22.5,0,0,0,3-3.9c1.2-2.5,2.4-5,3.4-7.6a117.1,117.1,0,0,0,7.4-41,10.6,10.6,0,0,1,1.3-5.5c2.1-3.8,4-7.8,6.1-11.6,9.8-17.7,21-34.4,32.8-50.8l3-4.4a239.5,239.5,0,0,0,12.7-22.7,115,115,0,0,0,7.1-17.9A38.8,38.8,0,0,0,1148.9,1125.4ZM904.5,1272.8c-1.3-.5-1.9-1.6-2.7-2.6a138.5,138.5,0,0,1-11.5-16.8,241.3,241.3,0,0,1-19.4-43.8,473,473,0,0,1-15.3-58.7c-1.5-7.6-2.9-15.1-4.5-22.6a59.4,59.4,0,0,0-3-9,27.2,27.2,0,0,0-6.9-9.3,19.1,19.1,0,0,1-5.3-8.1,14.6,14.6,0,0,1,1.3-12.4c3-5.1,7.6-8.3,13.1-10.2a10.9,10.9,0,0,1,2.6-.5,6.9,6.9,0,0,1,7.1,3.9,23,23,0,0,1,1.8,5.8,21.7,21.7,0,0,1,.3,4.5c.5,11.5.7,23.1,1.3,34.7a305.8,305.8,0,0,0,2.9,33.1c.6,3.5,1.4,6.9,2.3,10.3l13.2,52a99.8,99.8,0,0,0,6,16.6,288.1,288.1,0,0,0,15.9,28.8c.5,1,1.2,1.9,1.6,2.9S905.2,1272.6,904.5,1272.8Zm41.6-23.8c-.3-.1-.8-.1-1-.3a9.4,9.4,0,0,1-.9-1.2c-8.2-12.7-16.2-25.6-22.5-39.4a130.8,130.8,0,0,1-5.4-14c-1.9-5.6-2.1-11.4-2.4-17.2-.4-7.9-.6-15.8-.8-23.8-.2-10.4-.7-20.9-1.7-31.3a105.5,105.5,0,0,0-3.7-20.8,55.8,55.8,0,0,0-2.8-7.4,18.5,18.5,0,0,0-6.1-7.5c-2.2-1.8-4.3-3.8-6.4-5.9a19,19,0,0,1-3.9-6.4,9.7,9.7,0,0,1-.2-5.6,3.6,3.6,0,0,1,1.9-2.6c5.8-2.7,11.7-4.1,18-2.6a18.1,18.1,0,0,1,12.6,9.9,32.2,32.2,0,0,1,3,8.9,94.4,94.4,0,0,1,1.8,23.7c-.1,5.3-.6,10.6-.9,15.8-.1,1.4-.1,2.8-.2,4.2-.1,12.7.3,25.4,1,38.1a378,378,0,0,0,3.7,38.4c.8,5.2,1.9,10.4,3.1,15.5a51.9,51.9,0,0,0,5.3,13.7l8.1,15.4C946,1247.3,946.8,1248,946.1,1249Zm53.5-188.7a242.6,242.6,0,0,0-4.1,31.8c-2.4,33.2-2.9,66.4-3.1,99.6,0,14.6,0,29.2-.1,43.8,0,1.2-.1,2.4-.1,3.6l-.8.2c-.4-1.1-.8-2.1-1.1-3.2-7.5-26.8-14.3-53.7-19.6-81a339.5,339.5,0,0,1-5.3-36.2,102.3,102.3,0,0,1,.3-20.7c.7-6.8,1.2-13.6,1.8-20.3a144.6,144.6,0,0,1,2.2-18.7,49.4,49.4,0,0,1,1.5-5.5c2.2-7.1,7.1-11.7,13.8-14.6a16.7,16.7,0,0,1,4-1c3.8-.6,6.6,1,8.5,4.2a17.1,17.1,0,0,1,2.5,7.9A31.3,31.3,0,0,1,999.6,1060.3Zm46.4,77.8c-10.4,13.9-16.6,29.5-19.5,46.6a180.2,180.2,0,0,0-2.1,25.5,7.7,7.7,0,0,1-.7,4.2c-.3-4.2-.7-7.6-.9-11.1-.6-10.2-1.1-20.4-.9-30.6a161.4,161.4,0,0,1,1.4-19.6,35.9,35.9,0,0,1,5.9-15.3c3.8-5.6,7.3-11.5,10.9-17.2,4.9-7.6,9.9-15.2,15.5-22.3s13.3-15.8,21.6-22.1c1.1-.8,2-1.9,3.7-2a11.1,11.1,0,0,1-.2,1.9,133.7,133.7,0,0,1-11.5,31.9,80.1,80.1,0,0,1-11.5,16.3Q1051.5,1130.9,1046,1138.1Zm16.6,130.9-.4-.5c.1-.2.3-.2.5-.4h0v.3c0,.1.1.2.1.3Zm59.6-160.8c-1,3.5-1.9,7.1-3,10.5-4.5,13.1-9.9,25.9-15.1,38.7s-11.2,27.7-16.7,41.7c-1.4,3.6-2.7,7.3-3.8,11a42.7,42.7,0,0,0-2,8.4,82.6,82.6,0,0,1-3.9,16.5,318.4,318.4,0,0,1-13.4,31.2v.3l-.2.3a.4.4,0,0,1-.1.3c0,.1-.1.2-.1.3l-.2.2-.5.3h-.3c0-.4.1-.7.1-1.1s.1-.5.2-.8a3.1,3.1,0,0,1,.2-.8,9.4,9.4,0,0,1,.4-1.6c2.1-7,4-14,5.4-21.2a49.5,49.5,0,0,0,1.2-8.6,179.8,179.8,0,0,1,3.1-25.4,360.8,360.8,0,0,1,10.4-42.5,117.1,117.1,0,0,1,9.3-21.9c2.9-5.2,5.4-10.8,8-16.2,1.5-3,3-6.1,4.6-9.1a59.5,59.5,0,0,1,7-10.2,36.8,36.8,0,0,0,4.5-6.1c.7-1.3,1.6-2.6,3.5-2.8a8.7,8.7,0,0,1,1.1,1.8A11,11,0,0,1,1122.2,1108.2Z" transform="translate(-811.5 -1030.1)"/><path class="cls-1" d="M887.6,1438.9l1.3,1.1,7.6,6.9a12.3,12.3,0,0,0,6.4,3c5.7.9,11.4,1.6,17.2.6a22,22,0,0,0,9.7-4,28.9,28.9,0,0,1,8.6-4.7c6.5-2.3,13.1-4.4,20.2-4.5a23.9,23.9,0,0,1,7,.8,10.3,10.3,0,0,1,7,6.9c2.9,8.8,1.4,16.8-5.5,23.2a54.3,54.3,0,0,1-27.8,14.3,57.4,57.4,0,0,1-27.9-1.7l-6.9-2.1a20.8,20.8,0,0,1-12.4-9.9,36,36,0,0,1-4.4-12.4,66.7,66.7,0,0,1-.8-16.1,2,2,0,0,1,.3-1.1C887.2,1439.1,887.4,1439,887.6,1438.9Z" transform="translate(-811.5 -1030.1)"/><path class="cls-1" d="M1073.6,1438.9l.3.4a55.3,55.3,0,0,1-2.5,24.2,26.5,26.5,0,0,1-2.5,5.4,20.6,20.6,0,0,1-13.2,10c-3.9,1-7.7,2.4-11.6,3.3-15.6,3.2-30,.5-43.2-8.5a53,53,0,0,1-6-4.6c-7-6.1-9.3-13.8-6.8-22.8,1.4-5.4,4.8-8.2,10.4-8.8a34.1,34.1,0,0,1,13.1,1,102.2,102.2,0,0,1,11.9,3.7,25.5,25.5,0,0,1,6.9,3.7c4.4,3.5,9.4,4.7,14.8,5a55.3,55.3,0,0,0,14.6-1.4,10.4,10.4,0,0,0,4.3-2.2Z" transform="translate(-811.5 -1030.1)"/><path class="cls-1" d="M1070.6,1401.6l3.9-1.4c9.6-3.4,19.1-6.9,28.4-11.2a113.7,113.7,0,0,0,10.3-5.5,16.1,16.1,0,0,0,3.6-3.3,1.3,1.3,0,0,0-.2-2l-2.7-2c-4.2-2.3-8.4-4.7-12.6-6.8-6.3-3.2-12.7-6.2-19.1-9.1-3.8-1.7-5.3-4.9-6.4-8.4s.6-4.7,3.2-5.7a19.8,19.8,0,0,1,3.3-.8,8.7,8.7,0,0,1,5.8,1.2c4.7,2.9,9.5,5.7,14.3,8.5l8.3,4.4,16.4,7.7a24.2,24.2,0,0,1,7.5,5.6,18.8,18.8,0,0,1,1.8,2.4,8.6,8.6,0,0,1-2.9,11.9,12.4,12.4,0,0,1-2,1l-45.1,23a27.3,27.3,0,0,1-7.8,2.5h-1.2c-4.5.3-7.2-2-7.4-6.6A39.9,39.9,0,0,1,1070.6,1401.6Z" transform="translate(-811.5 -1030.1)"/><path class="cls-1" d="M871.1,1416.2a22.1,22.1,0,0,1-8.7-2.6l-28.2-14.4-15.8-8.1-2.7-1.4c-4.3-2.7-5.4-7.4-2.6-11.7a20.7,20.7,0,0,1,8.8-7.5c4.3-2.1,8.6-4.2,12.9-6.1a123.5,123.5,0,0,0,15.7-8.3l10.4-6.2c3.3-2,6.5-1.4,9.7,0a3.8,3.8,0,0,1,2.2,4.8c-1.1,3.5-2.8,6.5-6.5,8.3-8.6,4-17.2,8.3-25.7,12.5a76.8,76.8,0,0,0-7.8,4.7c-1.8,1.2-1.9,2.5-.3,4a15.7,15.7,0,0,0,4.1,3.2c3.6,2,7.1,3.9,10.8,5.5,8.8,4,17.9,7.4,27,10.6,3.8,1.3,4,1.6,4.1,5.6a7.6,7.6,0,0,1-.1,1.5c-.3,3.6-2.3,5.4-5.9,5.6Z" transform="translate(-811.5 -1030.1)"/><path class="cls-1" d="M958,1379.2c-1.6-8.7-6.6-14.6-15-17.4s-15.9-1-22.4,4.8a20.5,20.5,0,0,0-7.1,17.2c.8,11.9,10.5,20.6,22.4,20.6C950.5,1404.4,960.2,1391.4,958,1379.2Zm-16.4,7.5a9,9,0,0,1-11.4.1,5.8,5.8,0,0,1-2-4.5,5.5,5.5,0,0,1,1.8-3.8,8.8,8.8,0,0,1,11.7-.1A5.5,5.5,0,0,1,941.6,1386.7Z" transform="translate(-811.5 -1030.1)"/><path class="cls-1" d="M1041.9,1372.6c-4.1-8-11.1-12-20-12s-15.6,4.2-19.9,12.1a19.6,19.6,0,0,0-2.3,11.7c1.2,12.1,11.2,19.9,22.5,20l2.7-.2C1039.3,1402.6,1049.3,1386.8,1041.9,1372.6Zm-14.4,14.3a9,9,0,0,1-5.6,1.9,8.7,8.7,0,0,1-5.6-2,5.5,5.5,0,0,1-.2-8.3,8.8,8.8,0,0,1,11.7-.1A5.5,5.5,0,0,1,1027.5,1386.9Z" transform="translate(-811.5 -1030.1)"/><path class="cls-1" d="M957.9,1348.3c-.4-1-.7-2.1-1.1-3.1-2-5.1-5.7-7.2-11-6.3a17.2,17.2,0,0,0-10.3,5.1c-6.8,7-14.9,7.1-22.6,1a9.4,9.4,0,0,1-2.7-2.9c.5-.7.9-.4,1.3-.1a37.5,37.5,0,0,0,4.4,3.5c6,3.9,11.8,3.5,17.3-1.1l2-1.8c3.8-4.1,8.7-5.3,14-5.1a9,9,0,0,1,7.2,4.3A7.4,7.4,0,0,1,957.9,1348.3Z" transform="translate(-811.5 -1030.1)"/><path class="cls-1" d="M999.4,1415.1a1.9,1.9,0,0,1,.1,1,37.2,37.2,0,0,1-6.5,11l-.5.5c-4.8,4.8-10.2,5.3-15.7,1.5a27.3,27.3,0,0,1-6.4-6.3c-1.4-1.9-2.7-3.9-4-6a2.3,2.3,0,0,1,.1-1.8l1.7,2.4c1.8,2.4,3.5,4.9,5.5,7.1a21.3,21.3,0,0,0,5.2,4.3c4,2.4,7.8,2,11.5-1a20.3,20.3,0,0,0,4.7-5.8c1.1-1.8,2-3.8,3-5.7C998.4,1415.9,998.5,1415.1,999.4,1415.1Z" transform="translate(-811.5 -1030.1)"/><path class="cls-2" d="M1062.6,1268h0Z" transform="translate(-811.5 -1030.1)"/><path class="cls-2" d="M1062.7,1268a4.3,4.3,0,0,0,.2-1.1c0,.4-.1.7-.1,1.1Z" transform="translate(-811.5 -1030.1)"/><path class="cls-1" d="M1062.7,1268c0,.2.1.4.1.7l-.2.3-.4-.5c.1-.2.4-.3.5-.4Z" transform="translate(-811.5 -1030.1)"/></svg>