<svg id="Layer_1" data-name="Layer 1" xmlns="http://www.w3.org/2000/svg" xmlns:xlink="http://www.w3.org/1999/xlink" viewBox="0 0 2839.8 1236"><defs><style>.cls-1{fill:none;stroke-miterlimit:10;stroke-width:19px;fill-rule:evenodd;stroke:url(#linear-gradient);}</style><linearGradient id="linear-gradient" x1="1558.73" y1="2899.5" x2="1558.73" y2="1663.5" gradientUnits="userSpaceOnUse"><stop offset="0" stop-color="#1d59a1"/><stop offset="0.16" stop-color="#4677b2"/><stop offset="0.58" stop-color="#a9c0db"/><stop offset="0.86" stop-color="#e7edf5"/><stop offset="1" stop-color="#fff"/></linearGradient></defs><path class="cls-1" d="M1975.12,2416.52l59.28,102.67a58.81,58.81,0,0,1,0,58.77l-59.28,102.67a58.76,58.76,0,0,1-50.89,29.39H1805.66a58.76,58.76,0,0,1-50.89-29.39L1695.49,2578a58.81,58.81,0,0,1,0-58.77l59.28-102.67a58.76,58.76,0,0,1,50.89-29.39h118.57A58.76,58.76,0,0,1,1975.12,2416.52Zm258.06-209.19H2114.62a58.74,58.74,0,0,0-50.89,29.39l-59.29,102.67a58.81,58.81,0,0,0,0,58.77l59.29,102.67a58.74,58.74,0,0,0,50.89,29.39h118.56a58.76,58.76,0,0,0,50.89-29.39l59.28-102.67a58.76,58.76,0,0,0,0-58.77l-59.28-102.67A58.76,58.76,0,0,0,2233.18,2207.33Zm0,354.54H2114.62a58.75,58.75,0,0,0-50.89,29.38l-59.29,102.68a58.79,58.79,0,0,0,0,58.76l59.29,102.68a58.75,58.75,0,0,0,50.89,29.38h118.56a58.77,58.77,0,0,0,50.89-29.38l59.28-102.68a58.74,58.74,0,0,0,0-58.76l-59.28-102.68A58.77,58.77,0,0,0,2233.18,2561.87Zm303.89-172.2H2418.5a58.77,58.77,0,0,0-50.89,29.38l-59.28,102.68a58.79,58.79,0,0,0,0,58.76l59.28,102.68a58.77,58.77,0,0,0,50.89,29.38h118.57a58.74,58.74,0,0,0,50.88-29.38l59.29-102.68a58.79,58.79,0,0,0,0-58.76L2588,2419.05A58.74,58.74,0,0,0,2537.07,2389.67ZM2846,2209.87H2727.45a58.74,58.74,0,0,0-50.88,29.38l-59.29,102.68a58.79,58.79,0,0,0,0,58.76l59.29,102.68a58.74,58.74,0,0,0,50.88,29.38H2846a58.77,58.77,0,0,0,50.89-29.38l59.28-102.68a58.79,58.79,0,0,0,0-58.76l-59.28-102.68A58.77,58.77,0,0,0,2846,2209.87Zm5.07-353.92H2732.52a58.74,58.74,0,0,0-50.88,29.38L2622.35,1988a58.81,58.81,0,0,0,0,58.77l59.29,102.67a58.73,58.73,0,0,0,50.88,29.39h118.57a58.76,58.76,0,0,0,50.89-29.39l59.28-102.67a58.81,58.81,0,0,0,0-58.77L2902,1885.33A58.77,58.77,0,0,0,2851.09,1856ZM2846,2564.4H2727.45a58.74,58.74,0,0,0-50.88,29.38l-59.29,102.68a58.79,58.79,0,0,0,0,58.76l59.29,102.68a58.74,58.74,0,0,0,50.88,29.38H2846a58.77,58.77,0,0,0,50.89-29.38l59.28-102.68a58.79,58.79,0,0,0,0-58.76l-59.28-102.68A58.77,58.77,0,0,0,2846,2564.4ZM1615.27,1852.8H1496.71a58.77,58.77,0,0,0-50.89,29.38l-59.28,102.68a58.74,58.74,0,0,0,0,58.76l59.28,102.68a58.77,58.77,0,0,0,50.89,29.38h118.56a58.75,58.75,0,0,0,50.89-29.38l59.28-102.68a58.74,58.74,0,0,0,0-58.76l-59.28-102.68A58.75,58.75,0,0,0,1615.27,1852.8Zm309-179.8H1805.66a58.77,58.77,0,0,0-50.89,29.38l-59.28,102.68a58.79,58.79,0,0,0,0,58.76l59.28,102.68a58.77,58.77,0,0,0,50.89,29.38h118.57a58.77,58.77,0,0,0,50.89-29.38l59.28-102.68a58.79,58.79,0,0,0,0-58.76l-59.28-102.68A58.77,58.77,0,0,0,1924.23,1673Zm0,354.54H1805.66a58.77,58.77,0,0,0-50.89,29.38l-59.28,102.67a58.81,58.81,0,0,0,0,58.77L1754.77,2321a58.76,58.76,0,0,0,50.89,29.39h118.57a58.76,58.76,0,0,0,50.89-29.39l59.28-102.67a58.81,58.81,0,0,0,0-58.77l-59.28-102.67A58.77,58.77,0,0,0,1924.23,2027.54Zm303.88-172.21H2109.55a58.77,58.77,0,0,0-50.89,29.38l-59.28,102.68a58.74,58.74,0,0,0,0,58.76l59.28,102.68a58.77,58.77,0,0,0,50.89,29.38h118.56a58.75,58.75,0,0,0,50.89-29.38l59.28-102.68a58.74,58.74,0,0,0,0-58.76L2279,1884.71A58.75,58.75,0,0,0,2228.11,1855.33Zm309-179.8H2418.5a58.77,58.77,0,0,0-50.89,29.38l-59.28,102.68a58.79,58.79,0,0,0,0,58.76L2367.61,1969a58.77,58.77,0,0,0,50.89,29.38h118.57A58.74,58.74,0,0,0,2588,1969l59.29-102.68a58.79,58.79,0,0,0,0-58.76L2588,1704.91A58.74,58.74,0,0,0,2537.07,1675.53Zm0,354.54H2418.5a58.77,58.77,0,0,0-50.89,29.38l-59.28,102.68a58.79,58.79,0,0,0,0,58.76l59.28,102.68A58.77,58.77,0,0,0,2418.5,2353h118.57a58.74,58.74,0,0,0,50.88-29.38l59.29-102.68a58.79,58.79,0,0,0,0-58.76L2588,2059.45A58.74,58.74,0,0,0,2537.07,2030.07ZM693.89,2387.13H575.33a58.74,58.74,0,0,0-50.89,29.39l-59.28,102.67a58.76,58.76,0,0,0,0,58.77l59.28,102.67A58.74,58.74,0,0,0,575.33,2710H693.89a58.76,58.76,0,0,0,50.89-29.39L804.06,2578a58.76,58.76,0,0,0,0-58.77l-59.28-102.67A58.76,58.76,0,0,0,693.89,2387.13Zm309-179.8H884.28a58.75,58.75,0,0,0-50.89,29.39l-59.28,102.67a58.76,58.76,0,0,0,0,58.77l59.28,102.67a58.75,58.75,0,0,0,50.89,29.39h118.56a58.76,58.76,0,0,0,50.89-29.39L1113,2398.16a58.76,58.76,0,0,0,0-58.77l-59.28-102.67A58.76,58.76,0,0,0,1002.84,2207.33Zm0,354.54H884.28a58.76,58.76,0,0,0-50.89,29.38l-59.28,102.68a58.74,58.74,0,0,0,0,58.76l59.28,102.68a58.76,58.76,0,0,0,50.89,29.38h118.56a58.77,58.77,0,0,0,50.89-29.38L1113,2752.69a58.74,58.74,0,0,0,0-58.76l-59.28-102.68A58.77,58.77,0,0,0,1002.84,2561.87Zm303.89-172.2H1188.16a58.74,58.74,0,0,0-50.88,29.38L1078,2521.73a58.79,58.79,0,0,0,0,58.76l59.29,102.68a58.74,58.74,0,0,0,50.88,29.38h118.57a58.77,58.77,0,0,0,50.89-29.38l59.28-102.68a58.79,58.79,0,0,0,0-58.76l-59.28-102.68A58.77,58.77,0,0,0,1306.73,2389.67Zm309-179.8H1497.12a58.75,58.75,0,0,0-50.89,29.38L1387,2341.93a58.74,58.74,0,0,0,0,58.76l59.28,102.68a58.75,58.75,0,0,0,50.89,29.38h118.56a58.77,58.77,0,0,0,50.89-29.38l59.28-102.68a58.74,58.74,0,0,0,0-58.76l-59.28-102.68A58.77,58.77,0,0,0,1615.68,2209.87Zm0,354.53H1497.12a58.75,58.75,0,0,0-50.89,29.38L1387,2696.46a58.74,58.74,0,0,0,0,58.76l59.28,102.68a58.75,58.75,0,0,0,50.89,29.38h118.56a58.77,58.77,0,0,0,50.89-29.38l59.28-102.68a58.74,58.74,0,0,0,0-58.76l-59.28-102.68A58.77,58.77,0,0,0,1615.68,2564.4ZM384.94,1852.8H266.37a58.77,58.77,0,0,0-50.89,29.38L156.2,1984.86a58.79,58.79,0,0,0,0,58.76l59.28,102.68a58.77,58.77,0,0,0,50.89,29.38H384.94a58.77,58.77,0,0,0,50.89-29.38l59.28-102.68a58.79,58.79,0,0,0,0-58.76l-59.28-102.68A58.77,58.77,0,0,0,384.94,1852.8Zm309-179.8H575.33a58.75,58.75,0,0,0-50.89,29.38l-59.28,102.68a58.74,58.74,0,0,0,0,58.76l59.28,102.68a58.75,58.75,0,0,0,50.89,29.38H693.89a58.77,58.77,0,0,0,50.89-29.38l59.28-102.68a58.74,58.74,0,0,0,0-58.76l-59.28-102.68A58.77,58.77,0,0,0,693.89,1673Zm0,354.54H575.33a58.75,58.75,0,0,0-50.89,29.38l-59.28,102.67a58.76,58.76,0,0,0,0,58.77L524.44,2321a58.74,58.74,0,0,0,50.89,29.39H693.89A58.76,58.76,0,0,0,744.78,2321l59.28-102.67a58.76,58.76,0,0,0,0-58.77l-59.28-102.67A58.77,58.77,0,0,0,693.89,2027.54Zm303.89-172.21H879.21a58.77,58.77,0,0,0-50.89,29.38L769,1987.39a58.79,58.79,0,0,0,0,58.76l59.28,102.68a58.77,58.77,0,0,0,50.89,29.38H997.78a58.74,58.74,0,0,0,50.88-29.38L1108,2046.15a58.79,58.79,0,0,0,0-58.76l-59.29-102.68A58.74,58.74,0,0,0,997.78,1855.33Zm309-179.8H1188.16a58.74,58.74,0,0,0-50.88,29.38L1078,1807.59a58.79,58.79,0,0,0,0,58.76L1137.28,1969a58.74,58.74,0,0,0,50.88,29.38h118.57a58.77,58.77,0,0,0,50.89-29.38l59.28-102.68a58.79,58.79,0,0,0,0-58.76l-59.28-102.68A58.77,58.77,0,0,0,1306.73,1675.53Zm0,354.54H1188.16a58.74,58.74,0,0,0-50.88,29.38L1078,2162.13a58.79,58.79,0,0,0,0,58.76l59.29,102.68a58.74,58.74,0,0,0,50.88,29.38h118.57a58.77,58.77,0,0,0,50.89-29.38l59.28-102.68a58.79,58.79,0,0,0,0-58.76l-59.28-102.68A58.77,58.77,0,0,0,1306.73,2030.07ZM388.2,2567.12H269.64a58.75,58.75,0,0,0-50.89,29.38l-59.28,102.68a58.74,58.74,0,0,0,0,58.76l59.28,102.68A58.75,58.75,0,0,0,269.64,2890H388.2a58.77,58.77,0,0,0,50.89-29.38l59.28-102.68a58.74,58.74,0,0,0,0-58.76L439.09,2596.5A58.77,58.77,0,0,0,388.2,2567.12Zm0-359.6H269.64a58.75,58.75,0,0,0-50.89,29.38l-59.28,102.68a58.74,58.74,0,0,0,0,58.76L218.75,2501a58.75,58.75,0,0,0,50.89,29.38H388.2A58.77,58.77,0,0,0,439.09,2501l59.28-102.68a58.74,58.74,0,0,0,0-58.76L439.09,2236.9A58.77,58.77,0,0,0,388.2,2207.52Z" transform="translate(-138.83 -1663.5)"/></svg>